<svg width="19" height="16" viewBox="0 0 19 16" fill="none" xmlns="http://www.w3.org/2000/svg">
<path d="M18.4609 8.5C18.4609 9.20312 17.9141 9.75 17.25 9.75H5.25781L9.35938 13.8906C9.86719 14.3594 9.86719 15.1797 9.35938 15.6484C9.125 15.8828 8.8125 16 8.5 16C8.14844 16 7.83594 15.8828 7.60156 15.6484L1.35156 9.39844C0.84375 8.92969 0.84375 8.10938 1.35156 7.64062L7.60156 1.39062C8.07031 0.882812 8.89062 0.882812 9.35938 1.39062C9.86719 1.85938 9.86719 2.67969 9.35938 3.14844L5.25781 7.25H17.25C17.9141 7.25 18.4609 7.83594 18.4609 8.5Z" fill="white"/>
</svg>
