<svg width="58" height="43" viewBox="0 0 58 43" fill="none" xmlns="http://www.w3.org/2000/svg">
<path d="M48.125 3.5625C54.3125 12.75 57.4062 23.0625 56.2812 34.9688C56.2812 34.9688 56.2812 35.0625 56.1875 35.0625C52.0625 38.1562 47.375 40.5 42.4062 42C42.3125 42.0938 42.3125 42 42.2188 42C41.1875 40.5 40.25 39 39.4062 37.4062C39.4062 37.3125 39.4062 37.2188 39.5 37.125C41 36.5625 42.4062 35.9062 43.8125 35.0625C43.9062 35.0625 43.9062 34.875 43.8125 34.7812C43.5312 34.5938 43.25 34.4062 42.9688 34.125C42.875 34.125 42.875 34.125 42.7812 34.125C33.875 38.25 24.125 38.25 15.125 34.125C15.0312 34.125 14.9375 34.125 14.9375 34.125C14.6562 34.4062 14.375 34.5938 14.0938 34.7812C13.9062 34.875 14 35.0625 14.0938 35.0625C15.4062 35.9062 16.9062 36.5625 18.4062 37.125C18.5 37.2188 18.5 37.3125 18.5 37.4062C17.6562 39 16.7188 40.5 15.6875 42C15.5938 42 15.5 42.0938 15.5 42C10.5312 40.5 5.84375 38.1562 1.71875 35.0625C1.625 35.0625 1.625 34.9688 1.625 34.9688C0.6875 24.6562 2.65625 14.25 9.78125 3.5625C9.78125 3.5625 9.78125 3.5625 9.875 3.5625C13.4375 1.875 17.1875 0.75 21.0312 0.09375C21.125 0 21.2188 0.09375 21.2188 0.09375C21.7812 1.03125 22.25 2.0625 22.625 3C26.8438 2.34375 31.0625 2.34375 35.2812 3C35.6562 2.0625 36.125 1.03125 36.6875 0.09375C36.6875 0.09375 36.7812 0 36.875 0.09375C40.7188 0.75 44.4688 1.875 48.0312 3.5625C48.125 3.5625 48.125 3.5625 48.125 3.5625ZM19.8125 28.6875C22.5312 28.6875 24.7812 26.1562 24.7812 23.1562C24.7812 20.0625 22.625 17.625 19.8125 17.625C17.0938 17.625 14.8438 20.0625 14.8438 23.1562C14.8438 26.1562 17.0938 28.6875 19.8125 28.6875ZM38.0938 28.6875C40.9062 28.6875 43.0625 26.1562 43.0625 23.1562C43.1562 20.0625 40.9062 17.625 38.0938 17.625C35.375 17.625 33.2188 20.0625 33.2188 23.1562C33.2188 26.1562 35.375 28.6875 38.0938 28.6875Z" fill="#D9D9D9"/>
</svg>
