<svg width="21" height="28" viewBox="0 0 21 28" fill="none" xmlns="http://www.w3.org/2000/svg">
<path d="M11.3379 26.7422C10.7051 27.5332 9.49219 27.5332 8.85938 26.7422C6.16992 23.3145 0 15.1406 0 10.5C0 4.91016 4.53516 0.375 10.125 0.375C15.7148 0.375 20.25 4.91016 20.25 10.5C20.25 15.1406 14.0801 23.3145 11.3379 26.7422ZM10.125 7.125C8.91211 7.125 7.80469 7.81055 7.17188 8.8125C6.5918 9.86719 6.5918 11.1855 7.17188 12.1875C7.80469 13.2422 8.91211 13.875 10.125 13.875C11.2852 13.875 12.3926 13.2422 13.0254 12.1875C13.6055 11.1855 13.6055 9.86719 13.0254 8.8125C12.3926 7.81055 11.2852 7.125 10.125 7.125Z" fill="#D9D9D9"/>
</svg>
