<svg width="47" height="55" viewBox="0 0 47 55" fill="none" xmlns="http://www.w3.org/2000/svg">
<path d="M46.75 20.7578C42.3555 20.8555 38.2539 19.4883 34.7383 16.9492V34.4297C34.7383 46.6367 21.457 54.2539 10.9102 48.1992C0.363281 42.0469 0.363281 26.8125 10.9102 20.6602C13.9375 18.9023 17.5508 18.2188 21.0664 18.707V27.4961C15.6953 25.7383 10.5195 30.5234 11.6914 35.9922C12.9609 41.4609 19.6016 43.6094 23.8008 39.8008C25.2656 38.4336 26.1445 36.4805 26.1445 34.4297V0.25H34.7383C34.7383 1.03125 34.7383 1.71484 34.9336 2.49609C35.5195 5.71875 37.375 8.55078 40.207 10.3086C42.0625 11.5781 44.4062 12.2617 46.75 12.2617V20.7578Z" fill="#D9D9D9"/>
</svg>
